<?xml version="1.0" standalone="no"?>
<!DOCTYPE svg PUBLIC "-//W3C//DTD SVG 20010904//EN"
 "http://www.w3.org/TR/2001/REC-SVG-20010904/DTD/svg10.dtd">
<svg version="1.0" xmlns="http://www.w3.org/2000/svg"
 width="2048.000000pt" height="2048.000000pt" viewBox="0 0 2048.000000 2048.000000"
 preserveAspectRatio="xMidYMid meet">

<g transform="translate(0.000000,2048.000000) scale(0.100000,-0.100000)"
fill="#000000" stroke="none">
<path d="M0 10240 l0 -10240 10240 0 10240 0 0 10240 0 10240 -10240 0 -10240
0 0 -10240z m16347 4139 c96 -13 261 -67 331 -108 29 -17 55 -31 58 -31 18 0
167 -116 219 -171 281 -298 372 -674 249 -1024 -89 -250 -272 -459 -524 -597
-217 -119 -485 -154 -725 -94 -120 30 -273 98 -382 168 -377 245 -554 750
-403 1155 57 153 135 269 262 388 257 242 594 358 915 314z m-6972 -61 c3 -3
-15 -94 -40 -204 -24 -109 -67 -305 -94 -434 -28 -129 -62 -287 -76 -350 -14
-63 -41 -188 -60 -277 -33 -155 -65 -300 -230 -1053 -41 -184 -81 -368 -89
-408 -8 -41 -16 -75 -18 -77 -2 -1 -46 -24 -98 -50 -52 -27 -111 -58 -130 -70
-19 -12 -75 -43 -125 -69 -49 -27 -146 -79 -215 -116 -534 -289 -911 -480
-1009 -510 -61 -19 -98 -20 -1338 -20 -943 0 -1286 3 -1321 12 -61 15 -138 89
-148 142 -13 71 46 164 125 199 19 8 248 12 806 14 429 2 795 4 814 6 l34 2
33 150 c19 83 73 323 120 535 47 212 116 520 154 685 142 619 232 1012 270
1183 118 535 150 683 150 697 0 13 114 15 1043 17 1224 3 1436 3 1442 -4z
m5280 -30 c-4 -18 -27 -114 -50 -213 -85 -350 -144 -600 -150 -637 l-7 -38
-1259 1 c-1223 1 -1259 1 -1259 20 0 10 9 58 21 106 54 231 129 577 144 658 8
50 18 100 21 113 l4 22 1271 0 1271 0 -7 -32z m-550 -1388 c266 -15 430 -73
550 -196 76 -77 99 -121 568 -1114 174 -368 206 -430 226 -430 11 0 82 12 158
26 406 75 839 140 998 150 137 8 135 7 135 55 0 81 73 174 178 228 131 67 291
42 400 -63 113 -107 128 -256 39 -378 -105 -144 -261 -197 -448 -151 l-68 16
-63 -30 c-123 -60 -479 -188 -983 -353 -371 -122 -439 -141 -521 -147 -85 -6
-126 11 -195 84 -86 91 -89 95 -464 723 -136 228 -288 480 -338 560 -118 190
-217 359 -217 371 0 19 -16 8 -28 -20 -23 -52 -341 -364 -687 -673 -167 -149
-295 -281 -327 -338 -54 -94 -60 -213 -17 -305 34 -71 207 -272 674 -780 66
-71 138 -150 161 -175 23 -25 113 -124 201 -220 262 -288 402 -452 436 -510
29 -50 32 -63 32 -140 0 -78 -3 -90 -34 -145 -19 -33 -86 -132 -151 -220 -64
-88 -198 -279 -298 -425 -99 -146 -237 -346 -306 -445 -69 -99 -165 -238 -213
-310 -248 -364 -351 -515 -442 -646 -55 -79 -131 -190 -168 -246 l-68 -101
-1157 -1 c-907 0 -1158 2 -1158 12 0 6 20 100 45 207 63 273 215 965 296 1345
22 105 67 318 99 475 33 157 77 373 100 480 23 107 50 240 60 295 10 55 33
172 50 260 17 88 34 176 37 195 l5 35 -1283 -3 -1284 -3 -85 -46 c-162 -88
-447 -247 -720 -401 -438 -248 -613 -330 -745 -352 -27 -4 -656 -10 -1397 -12
l-1346 -3 -43 30 c-56 40 -79 73 -86 122 -9 65 44 147 110 172 19 8 262 11
747 11 l719 0 7 38 c4 20 26 120 50 222 23 101 42 186 40 187 -4 4 -3277 2
-3336 -2 -138 -9 -242 71 -242 185 0 61 23 104 74 138 l42 27 2420 5 2421 5
90 36 c144 58 353 165 970 497 300 161 611 321 735 376 l135 61 1126 3 1125 2
17 88 c9 48 34 173 57 277 22 105 61 289 86 410 81 392 205 968 210 977 7 11
2087 10 2289 -2z m-5805 -3832 c-13 -31 -90 -381 -194 -893 -31 -148 -72 -342
-91 -430 -19 -88 -55 -254 -79 -370 -47 -223 -135 -634 -161 -750 -8 -38 -15
-70 -15 -70 0 0 -583 -1 -1295 -1 -1187 -1 -1295 0 -1291 15 9 31 105 438 145
616 162 716 221 985 221 1005 0 6 -379 10 -1038 10 l-1039 0 -41 30 c-87 63
-107 171 -45 248 16 20 45 45 64 54 32 17 141 18 1850 18 1767 0 1819 1 1910
20 288 60 583 195 994 456 55 35 103 63 107 64 4 0 3 -10 -2 -22z"/>
<path d="M12019 11293 c-6 -16 -17 -41 -25 -57 -8 -16 -14 -36 -14 -44 0 -8
-6 -12 -15 -8 -8 3 -15 1 -15 -4 0 -6 5 -10 10 -10 6 0 10 -5 10 -11 0 -15
-30 -43 -38 -35 -3 4 0 11 8 16 8 5 11 12 7 16 -4 4 -18 -5 -32 -20 -23 -25
-25 -25 -34 -7 -9 16 -14 18 -36 8 -14 -7 -25 -21 -25 -32 -1 -17 -2 -18 -10
-4 -6 10 -3 37 10 79 20 66 19 95 -1 44 -63 -161 -89 -285 -89 -428 0 -173 62
-353 177 -515 95 -133 308 -331 513 -476 30 -22 87 -64 125 -95 128 -103 125
-90 -12 56 -242 258 -465 597 -531 804 -63 196 -57 410 17 678 20 72 20 97 0
45z m-149 -183 c0 -5 -5 -10 -11 -10 -5 0 -7 5 -4 10 3 6 8 10 11 10 2 0 4 -4
4 -10z"/>
<path d="M12810 9442 c0 -21 -111 -223 -188 -342 -157 -241 -627 -949 -792
-1190 -103 -151 -195 -290 -204 -309 -30 -58 -18 -80 189 -341 236 -296 324
-399 366 -427 37 -25 50 -27 128 -27 99 0 147 19 199 78 101 116 11 330 -242
575 -89 86 -93 62 37 223 145 179 657 872 857 1159 47 67 104 147 128 177 23
31 42 59 42 63 0 4 -24 22 -52 40 -55 34 -229 159 -238 169 -3 4 -48 40 -100
81 -52 40 -96 77 -98 81 -7 16 -32 8 -32 -10z"/>
</g>
</svg>
