<?xml version="1.0" encoding="UTF-8" ?>
<!DOCTYPE svg PUBLIC "-//W3C//DTD SVG 1.1//EN" "http://www.w3.org/Graphics/SVG/1.1/DTD/svg11.dtd">
<svg width="1024pt" height="1024pt" viewBox="0 0 1024 1024" version="1.1" xmlns="http://www.w3.org/2000/svg">
<g id="#141414ff">
</g>
<g id="#c878caff">
<path fill="#c878ca" opacity="1.00" d=" M 482.59 311.47 C 498.01 300.78 517.31 294.94 536.08 297.61 C 547.09 298.88 557.96 304.33 564.24 313.67 C 569.86 322.36 572.29 332.78 572.66 343.03 C 573.16 364.01 566.49 384.47 557.07 402.99 C 535.05 445.97 502.35 482.52 466.59 514.56 C 460.40 520.39 453.14 525.37 448.68 532.79 C 439.01 547.89 435.52 565.96 433.71 583.54 C 433.02 590.48 432.63 597.49 433.28 604.45 C 442.01 590.09 451.30 576.03 461.81 562.89 C 475.65 546.13 490.74 530.29 507.85 516.83 C 520.94 506.27 535.37 497.15 551.15 491.20 C 566.73 485.81 584.00 483.17 600.10 487.81 C 610.95 490.89 620.39 498.84 624.62 509.37 C 630.95 524.46 629.30 541.51 625.64 557.07 C 618.38 586.57 604.78 613.97 595.97 642.98 C 593.92 650.90 591.57 659.52 594.44 667.54 C 596.21 672.95 601.20 677.20 606.91 677.79 C 614.25 678.71 621.05 674.92 626.98 671.05 C 634.40 665.90 640.59 659.22 647.70 653.68 C 651.20 651.17 655.69 649.71 659.99 650.63 C 664.66 651.76 668.09 656.30 668.28 661.04 C 668.61 667.05 665.50 672.52 662.40 677.43 C 656.07 686.90 647.30 694.42 638.39 701.38 C 623.38 713.13 606.01 722.58 587.02 725.67 C 571.84 728.45 555.10 726.84 542.24 717.70 C 530.40 709.65 522.95 696.08 521.61 681.92 C 519.84 662.21 524.59 642.60 530.98 624.10 C 537.54 603.78 547.21 584.59 553.41 564.15 C 555.12 557.39 557.40 549.69 553.91 543.12 C 552.35 539.68 548.89 537.17 545.10 537.01 C 538.06 536.57 531.63 540.22 525.84 543.79 C 509.92 554.94 496.69 569.50 485.03 584.95 C 460.86 617.55 443.49 654.67 429.78 692.71 C 426.13 702.82 422.95 714.05 414.05 720.91 C 398.89 731.96 374.52 727.46 364.77 711.26 C 357.08 699.35 355.94 684.76 355.80 670.96 C 355.36 645.15 358.09 619.41 361.42 593.85 C 368.19 545.97 379.22 498.64 395.14 452.97 C 407.07 419.75 421.19 387.10 440.37 357.37 C 451.81 339.95 465.23 323.32 482.59 311.47 M 514.63 349.60 C 506.18 355.15 500.41 363.74 495.23 372.22 C 484.65 388.99 476.76 407.25 469.27 425.55 C 461.05 446.76 453.01 468.22 448.75 490.63 C 450.05 489.98 451.39 489.38 452.58 488.52 C 464.51 479.63 474.48 468.45 483.81 456.94 C 496.12 440.89 507.81 424.26 517.31 406.37 C 524.33 392.39 531.48 377.84 532.53 361.97 C 532.69 357.22 532.59 351.58 528.72 348.19 C 524.37 345.21 518.68 346.92 514.63 349.60 Z" />
</g>
</svg>
