<svg xmlns="http://www.w3.org/2000/svg" width="56" height="56" viewBox="0 0 24 24" fill="none" stroke="#E2F163" stroke-width="2" stroke-linecap="round" stroke-linejoin="round" shape-rendering="geometricPrecision">
  <path d="M12 20.94c1.5 0 2.75-1.06 3-2.5.5-2-.5-3.5-2.5-4.5-2 1-3 2.5-2.5 4.5.25 1.44 1.5 2.5 3 2.5z"/>
  <path d="M12 20.94c-1.5 0-3-.5-4.25-1.5-2-1.5-3-3.5-3-5.94V13c0-1.5.5-2.8 1.5-3.8 1-1 2.2-1.5 3.5-1.5h2c1.3 0 2.5.5 3.5 1.5 1 1 1.5 2.3 1.5 3.8v.5c0 2.44-1 4.44-2.25 5.94-1.25 1-2.75 1.5-4.25 1.5z"/>
</svg>
